<svg xmlns="http://www.w3.org/2000/svg" width="760" height="420" viewBox="0 0 760 420">
<rect width="100%" height="100%" fill="white"/>
<text x="380.0" y="28" text-anchor="middle" font-size="20" font-family="Arial">MHR@8 by Retrieval Hop</text>
<line x1="60" y1="360" x2="700" y2="360" stroke="#333"/>
<line x1="60" y1="60" x2="60" y2="360" stroke="#333"/>
<line x1="55" y1="360.0" x2="700" y2="360.0" stroke="#eee"/>
<text x="50" y="364.0" text-anchor="end" font-size="12" font-family="Arial">0</text>
<line x1="55" y1="300.0" x2="700" y2="300.0" stroke="#eee"/>
<text x="50" y="304.0" text-anchor="end" font-size="12" font-family="Arial">8</text>
<line x1="55" y1="240.0" x2="700" y2="240.0" stroke="#eee"/>
<text x="50" y="244.0" text-anchor="end" font-size="12" font-family="Arial">16</text>
<line x1="55" y1="180.0" x2="700" y2="180.0" stroke="#eee"/>
<text x="50" y="184.0" text-anchor="end" font-size="12" font-family="Arial">24</text>
<line x1="55" y1="120.0" x2="700" y2="120.0" stroke="#eee"/>
<text x="50" y="124.0" text-anchor="end" font-size="12" font-family="Arial">32</text>
<line x1="55" y1="60.0" x2="700" y2="60.0" stroke="#eee"/>
<text x="50" y="64.0" text-anchor="end" font-size="12" font-family="Arial">40</text>
<text x="60.0" y="384" text-anchor="middle" font-size="12" font-family="Arial">1</text>
<text x="151.4" y="384" text-anchor="middle" font-size="12" font-family="Arial">2</text>
<text x="242.9" y="384" text-anchor="middle" font-size="12" font-family="Arial">3</text>
<text x="334.3" y="384" text-anchor="middle" font-size="12" font-family="Arial">4</text>
<text x="425.7" y="384" text-anchor="middle" font-size="12" font-family="Arial">5</text>
<text x="517.1" y="384" text-anchor="middle" font-size="12" font-family="Arial">6</text>
<text x="608.6" y="384" text-anchor="middle" font-size="12" font-family="Arial">7</text>
<text x="700.0" y="384" text-anchor="middle" font-size="12" font-family="Arial">final</text>
<polyline points="60.0,171.5 151.4,164.4 242.9,164.0 334.3,164.0 425.7,164.0 517.1,164.0 608.6,164.0 700.0,164.0" fill="none" stroke="#666" stroke-width="3"/>
<polyline points="60.0,131.8 151.4,104.6 242.9,101.1 334.3,99.9 425.7,99.1 517.1,99.1 608.6,99.1 700.0,99.1" fill="none" stroke="#d94801" stroke-width="3"/>
<circle cx="60.0" cy="171.5" r="4" fill="#666"/>
<circle cx="151.4" cy="164.4" r="4" fill="#666"/>
<circle cx="242.9" cy="164.0" r="4" fill="#666"/>
<circle cx="334.3" cy="164.0" r="4" fill="#666"/>
<circle cx="425.7" cy="164.0" r="4" fill="#666"/>
<circle cx="517.1" cy="164.0" r="4" fill="#666"/>
<circle cx="608.6" cy="164.0" r="4" fill="#666"/>
<circle cx="700.0" cy="164.0" r="4" fill="#666"/>
<circle cx="60.0" cy="131.8" r="4" fill="#d94801"/>
<circle cx="151.4" cy="104.6" r="4" fill="#d94801"/>
<circle cx="242.9" cy="101.1" r="4" fill="#d94801"/>
<circle cx="334.3" cy="99.9" r="4" fill="#d94801"/>
<circle cx="425.7" cy="99.1" r="4" fill="#d94801"/>
<circle cx="517.1" cy="99.1" r="4" fill="#d94801"/>
<circle cx="608.6" cy="99.1" r="4" fill="#d94801"/>
<circle cx="700.0" cy="99.1" r="4" fill="#d94801"/>
<rect x="550" y="55" width="150" height="55" fill="white" stroke="#ddd"/>
<line x1="565" y1="75" x2="595" y2="75" stroke="#666" stroke-width="3"/><text x="605" y="79" font-size="13" font-family="Arial">Baseline</text>
<line x1="565" y1="98" x2="595" y2="98" stroke="#d94801" stroke-width="3"/><text x="605" y="102" font-size="13" font-family="Arial">TTA</text>
<text x="20" y="215" transform="rotate(-90 20,215)" text-anchor="middle" font-size="13" font-family="Arial">MHR@8 (%)</text>
</svg>