<svg xmlns="http://www.w3.org/2000/svg" width="760" height="420" viewBox="0 0 760 420">
<rect width="100%" height="100%" fill="white"/>
<text x="380.0" y="28" text-anchor="middle" font-size="20" font-family="Arial">TTA Query Shift Distribution</text>
<line x1="60" y1="360" x2="700" y2="360" stroke="#333"/>
<line x1="60" y1="60" x2="60" y2="360" stroke="#333"/>
<rect x="60.0" y="260.8" width="30.0" height="99.2" fill="#3182bd"/>
<rect x="92.0" y="360.0" width="30.0" height="0.0" fill="#3182bd"/>
<rect x="124.0" y="359.7" width="30.0" height="0.3" fill="#3182bd"/>
<rect x="156.0" y="360.0" width="30.0" height="0.0" fill="#3182bd"/>
<rect x="188.0" y="358.0" width="30.0" height="2.0" fill="#3182bd"/>
<rect x="220.0" y="359.0" width="30.0" height="1.0" fill="#3182bd"/>
<rect x="252.0" y="356.7" width="30.0" height="3.3" fill="#3182bd"/>
<rect x="284.0" y="60.0" width="30.0" height="300.0" fill="#3182bd"/>
<rect x="316.0" y="358.4" width="30.0" height="1.6" fill="#3182bd"/>
<rect x="348.0" y="355.1" width="30.0" height="4.9" fill="#3182bd"/>
<rect x="380.0" y="355.1" width="30.0" height="4.9" fill="#3182bd"/>
<rect x="412.0" y="348.9" width="30.0" height="11.1" fill="#3182bd"/>
<rect x="444.0" y="329.2" width="30.0" height="30.8" fill="#3182bd"/>
<rect x="476.0" y="321.7" width="30.0" height="38.3" fill="#3182bd"/>
<rect x="508.0" y="304.0" width="30.0" height="56.0" fill="#3182bd"/>
<rect x="540.0" y="299.1" width="30.0" height="60.9" fill="#3182bd"/>
<rect x="572.0" y="335.1" width="30.0" height="24.9" fill="#3182bd"/>
<rect x="604.0" y="355.7" width="30.0" height="4.3" fill="#3182bd"/>
<rect x="636.0" y="358.4" width="30.0" height="1.6" fill="#3182bd"/>
<rect x="668.0" y="358.7" width="30.0" height="1.3" fill="#3182bd"/>
<text x="380.0" y="402" text-anchor="middle" font-size="13" font-family="Arial">query_shift_l2</text>
<text x="20" y="215" transform="rotate(-90 20,215)" text-anchor="middle" font-size="13" font-family="Arial">Count</text>
<text x="60" y="384" text-anchor="middle" font-size="11" font-family="Arial">0.009</text>
<text x="700" y="384" text-anchor="middle" font-size="11" font-family="Arial">3.178</text>
</svg>